<mxfile host="app.diagrams.net" agent="Mozilla/5.0 (Macintosh; Intel Mac OS X 10_15_7) AppleWebKit/537.36 (KHTML, like Gecko) Chrome/127.0.0.0 Safari/537.36" version="24.7.7">
  <diagram id="ihvWXXCEp54avZkIdxqo" name="第 1 页">
    <mxGraphModel dx="896" dy="594" grid="1" gridSize="10" guides="1" tooltips="1" connect="1" arrows="1" fold="1" page="1" pageScale="1" pageWidth="827" pageHeight="1169" math="0" shadow="0">
      <root>
        <mxCell id="0" />
        <mxCell id="1" parent="0" />
        <mxCell id="xVgXiPHcwSo_9_qTZW_U-1" style="edgeStyle=orthogonalEdgeStyle;rounded=0;orthogonalLoop=1;jettySize=auto;html=1;entryX=0;entryY=0.5;entryDx=0;entryDy=0;" edge="1" parent="1" source="xVgXiPHcwSo_9_qTZW_U-5" target="xVgXiPHcwSo_9_qTZW_U-8">
          <mxGeometry relative="1" as="geometry" />
        </mxCell>
        <mxCell id="xVgXiPHcwSo_9_qTZW_U-2" value="1" style="edgeLabel;html=1;align=center;verticalAlign=middle;resizable=0;points=[];" vertex="1" connectable="0" parent="xVgXiPHcwSo_9_qTZW_U-1">
          <mxGeometry x="-0.16" y="1" relative="1" as="geometry">
            <mxPoint as="offset" />
          </mxGeometry>
        </mxCell>
        <mxCell id="xVgXiPHcwSo_9_qTZW_U-3" style="edgeStyle=orthogonalEdgeStyle;rounded=0;orthogonalLoop=1;jettySize=auto;html=1;entryX=0.5;entryY=0;entryDx=0;entryDy=0;curved=1;" edge="1" parent="1" source="xVgXiPHcwSo_9_qTZW_U-5" target="xVgXiPHcwSo_9_qTZW_U-19">
          <mxGeometry relative="1" as="geometry">
            <Array as="points">
              <mxPoint x="105" y="200" />
              <mxPoint x="355" y="200" />
            </Array>
          </mxGeometry>
        </mxCell>
        <mxCell id="xVgXiPHcwSo_9_qTZW_U-4" value="4" style="edgeLabel;html=1;align=center;verticalAlign=middle;resizable=0;points=[];" vertex="1" connectable="0" parent="xVgXiPHcwSo_9_qTZW_U-3">
          <mxGeometry x="0.0297" y="-1" relative="1" as="geometry">
            <mxPoint as="offset" />
          </mxGeometry>
        </mxCell>
        <mxCell id="xVgXiPHcwSo_9_qTZW_U-5" value="1" style="rounded=0;whiteSpace=wrap;html=1;" vertex="1" parent="1">
          <mxGeometry x="90" y="270" width="30" height="30" as="geometry" />
        </mxCell>
        <mxCell id="xVgXiPHcwSo_9_qTZW_U-6" style="edgeStyle=orthogonalEdgeStyle;rounded=0;orthogonalLoop=1;jettySize=auto;html=1;exitX=1;exitY=0.5;exitDx=0;exitDy=0;entryX=0;entryY=0.5;entryDx=0;entryDy=0;" edge="1" parent="1" source="xVgXiPHcwSo_9_qTZW_U-8" target="xVgXiPHcwSo_9_qTZW_U-11">
          <mxGeometry relative="1" as="geometry" />
        </mxCell>
        <mxCell id="xVgXiPHcwSo_9_qTZW_U-7" value="1" style="edgeLabel;html=1;align=center;verticalAlign=middle;resizable=0;points=[];" vertex="1" connectable="0" parent="xVgXiPHcwSo_9_qTZW_U-6">
          <mxGeometry x="-0.2471" y="-2" relative="1" as="geometry">
            <mxPoint y="-4" as="offset" />
          </mxGeometry>
        </mxCell>
        <mxCell id="xVgXiPHcwSo_9_qTZW_U-8" value="3" style="rounded=0;whiteSpace=wrap;html=1;" vertex="1" parent="1">
          <mxGeometry x="160" y="270" width="30" height="30" as="geometry" />
        </mxCell>
        <mxCell id="xVgXiPHcwSo_9_qTZW_U-9" style="edgeStyle=orthogonalEdgeStyle;rounded=0;orthogonalLoop=1;jettySize=auto;html=1;exitX=1;exitY=0.5;exitDx=0;exitDy=0;entryX=0;entryY=0.5;entryDx=0;entryDy=0;" edge="1" parent="1" source="xVgXiPHcwSo_9_qTZW_U-11" target="xVgXiPHcwSo_9_qTZW_U-14">
          <mxGeometry relative="1" as="geometry" />
        </mxCell>
        <mxCell id="xVgXiPHcwSo_9_qTZW_U-10" value="1" style="edgeLabel;html=1;align=center;verticalAlign=middle;resizable=0;points=[];" vertex="1" connectable="0" parent="xVgXiPHcwSo_9_qTZW_U-9">
          <mxGeometry x="-0.4" y="2" relative="1" as="geometry">
            <mxPoint as="offset" />
          </mxGeometry>
        </mxCell>
        <mxCell id="xVgXiPHcwSo_9_qTZW_U-11" value="4" style="rounded=0;whiteSpace=wrap;html=1;" vertex="1" parent="1">
          <mxGeometry x="224" y="270" width="30" height="30" as="geometry" />
        </mxCell>
        <mxCell id="xVgXiPHcwSo_9_qTZW_U-12" style="edgeStyle=orthogonalEdgeStyle;rounded=0;orthogonalLoop=1;jettySize=auto;html=1;exitX=1;exitY=0.5;exitDx=0;exitDy=0;entryX=0;entryY=0.5;entryDx=0;entryDy=0;" edge="1" parent="1" source="xVgXiPHcwSo_9_qTZW_U-14" target="xVgXiPHcwSo_9_qTZW_U-19">
          <mxGeometry relative="1" as="geometry" />
        </mxCell>
        <mxCell id="xVgXiPHcwSo_9_qTZW_U-13" value="1" style="edgeLabel;html=1;align=center;verticalAlign=middle;resizable=0;points=[];" vertex="1" connectable="0" parent="xVgXiPHcwSo_9_qTZW_U-12">
          <mxGeometry x="-0.2133" y="2" relative="1" as="geometry">
            <mxPoint as="offset" />
          </mxGeometry>
        </mxCell>
        <mxCell id="xVgXiPHcwSo_9_qTZW_U-14" value="5" style="rounded=0;whiteSpace=wrap;html=1;" vertex="1" parent="1">
          <mxGeometry x="280" y="270" width="30" height="30" as="geometry" />
        </mxCell>
        <mxCell id="xVgXiPHcwSo_9_qTZW_U-15" style="edgeStyle=orthogonalEdgeStyle;rounded=0;orthogonalLoop=1;jettySize=auto;html=1;entryX=0;entryY=0.5;entryDx=0;entryDy=0;" edge="1" parent="1" source="xVgXiPHcwSo_9_qTZW_U-19" target="xVgXiPHcwSo_9_qTZW_U-22">
          <mxGeometry relative="1" as="geometry" />
        </mxCell>
        <mxCell id="xVgXiPHcwSo_9_qTZW_U-16" value="1" style="edgeLabel;html=1;align=center;verticalAlign=middle;resizable=0;points=[];" vertex="1" connectable="0" parent="xVgXiPHcwSo_9_qTZW_U-15">
          <mxGeometry x="0.272" relative="1" as="geometry">
            <mxPoint as="offset" />
          </mxGeometry>
        </mxCell>
        <mxCell id="xVgXiPHcwSo_9_qTZW_U-17" style="edgeStyle=orthogonalEdgeStyle;rounded=0;orthogonalLoop=1;jettySize=auto;html=1;exitX=0.5;exitY=0;exitDx=0;exitDy=0;entryX=0.5;entryY=0;entryDx=0;entryDy=0;curved=1;" edge="1" parent="1" source="xVgXiPHcwSo_9_qTZW_U-19" target="xVgXiPHcwSo_9_qTZW_U-27">
          <mxGeometry relative="1" as="geometry" />
        </mxCell>
        <mxCell id="xVgXiPHcwSo_9_qTZW_U-18" value="2" style="edgeLabel;html=1;align=center;verticalAlign=middle;resizable=0;points=[];" vertex="1" connectable="0" parent="xVgXiPHcwSo_9_qTZW_U-17">
          <mxGeometry x="-0.0775" y="4" relative="1" as="geometry">
            <mxPoint as="offset" />
          </mxGeometry>
        </mxCell>
        <mxCell id="xVgXiPHcwSo_9_qTZW_U-19" value="7" style="rounded=0;whiteSpace=wrap;html=1;" vertex="1" parent="1">
          <mxGeometry x="340" y="270" width="30" height="30" as="geometry" />
        </mxCell>
        <mxCell id="xVgXiPHcwSo_9_qTZW_U-20" style="edgeStyle=orthogonalEdgeStyle;rounded=0;orthogonalLoop=1;jettySize=auto;html=1;exitX=1;exitY=0.5;exitDx=0;exitDy=0;entryX=0;entryY=0.5;entryDx=0;entryDy=0;" edge="1" parent="1" source="xVgXiPHcwSo_9_qTZW_U-22" target="xVgXiPHcwSo_9_qTZW_U-27">
          <mxGeometry relative="1" as="geometry" />
        </mxCell>
        <mxCell id="xVgXiPHcwSo_9_qTZW_U-21" value="1" style="edgeLabel;html=1;align=center;verticalAlign=middle;resizable=0;points=[];" vertex="1" connectable="0" parent="xVgXiPHcwSo_9_qTZW_U-20">
          <mxGeometry x="-0.48" y="2" relative="1" as="geometry">
            <mxPoint as="offset" />
          </mxGeometry>
        </mxCell>
        <mxCell id="xVgXiPHcwSo_9_qTZW_U-22" value="8" style="rounded=0;whiteSpace=wrap;html=1;" vertex="1" parent="1">
          <mxGeometry x="400" y="270" width="30" height="30" as="geometry" />
        </mxCell>
        <mxCell id="xVgXiPHcwSo_9_qTZW_U-23" style="edgeStyle=orthogonalEdgeStyle;rounded=0;orthogonalLoop=1;jettySize=auto;html=1;entryX=0;entryY=0.5;entryDx=0;entryDy=0;" edge="1" parent="1" source="xVgXiPHcwSo_9_qTZW_U-27" target="xVgXiPHcwSo_9_qTZW_U-30">
          <mxGeometry relative="1" as="geometry" />
        </mxCell>
        <mxCell id="xVgXiPHcwSo_9_qTZW_U-24" value="1" style="edgeLabel;html=1;align=center;verticalAlign=middle;resizable=0;points=[];" vertex="1" connectable="0" parent="xVgXiPHcwSo_9_qTZW_U-23">
          <mxGeometry x="-0.728" y="4" relative="1" as="geometry">
            <mxPoint as="offset" />
          </mxGeometry>
        </mxCell>
        <mxCell id="xVgXiPHcwSo_9_qTZW_U-25" style="edgeStyle=orthogonalEdgeStyle;rounded=0;orthogonalLoop=1;jettySize=auto;html=1;entryX=0.5;entryY=0;entryDx=0;entryDy=0;curved=1;" edge="1" parent="1" source="xVgXiPHcwSo_9_qTZW_U-27" target="xVgXiPHcwSo_9_qTZW_U-36">
          <mxGeometry relative="1" as="geometry">
            <Array as="points">
              <mxPoint x="475" y="240" />
              <mxPoint x="655" y="240" />
            </Array>
          </mxGeometry>
        </mxCell>
        <mxCell id="xVgXiPHcwSo_9_qTZW_U-26" value="3" style="edgeLabel;html=1;align=center;verticalAlign=middle;resizable=0;points=[];" vertex="1" connectable="0" parent="xVgXiPHcwSo_9_qTZW_U-25">
          <mxGeometry x="-0.0267" y="1" relative="1" as="geometry">
            <mxPoint as="offset" />
          </mxGeometry>
        </mxCell>
        <mxCell id="xVgXiPHcwSo_9_qTZW_U-27" value="9" style="rounded=0;whiteSpace=wrap;html=1;" vertex="1" parent="1">
          <mxGeometry x="460" y="270" width="30" height="30" as="geometry" />
        </mxCell>
        <mxCell id="xVgXiPHcwSo_9_qTZW_U-28" style="edgeStyle=orthogonalEdgeStyle;rounded=0;orthogonalLoop=1;jettySize=auto;html=1;exitX=1;exitY=0.5;exitDx=0;exitDy=0;entryX=0;entryY=0.5;entryDx=0;entryDy=0;" edge="1" parent="1" source="xVgXiPHcwSo_9_qTZW_U-30" target="xVgXiPHcwSo_9_qTZW_U-33">
          <mxGeometry relative="1" as="geometry" />
        </mxCell>
        <mxCell id="xVgXiPHcwSo_9_qTZW_U-29" value="1" style="edgeLabel;html=1;align=center;verticalAlign=middle;resizable=0;points=[];" vertex="1" connectable="0" parent="xVgXiPHcwSo_9_qTZW_U-28">
          <mxGeometry x="-0.3467" y="-1" relative="1" as="geometry">
            <mxPoint as="offset" />
          </mxGeometry>
        </mxCell>
        <mxCell id="xVgXiPHcwSo_9_qTZW_U-30" value="10" style="rounded=0;whiteSpace=wrap;html=1;" vertex="1" parent="1">
          <mxGeometry x="520" y="270" width="30" height="30" as="geometry" />
        </mxCell>
        <mxCell id="xVgXiPHcwSo_9_qTZW_U-31" style="edgeStyle=orthogonalEdgeStyle;rounded=0;orthogonalLoop=1;jettySize=auto;html=1;exitX=1;exitY=0.5;exitDx=0;exitDy=0;entryX=0;entryY=0.5;entryDx=0;entryDy=0;" edge="1" parent="1" source="xVgXiPHcwSo_9_qTZW_U-33" target="xVgXiPHcwSo_9_qTZW_U-36">
          <mxGeometry relative="1" as="geometry" />
        </mxCell>
        <mxCell id="xVgXiPHcwSo_9_qTZW_U-32" value="1" style="edgeLabel;html=1;align=center;verticalAlign=middle;resizable=0;points=[];" vertex="1" connectable="0" parent="xVgXiPHcwSo_9_qTZW_U-31">
          <mxGeometry x="-0.08" y="-1" relative="1" as="geometry">
            <mxPoint x="-4" y="-2" as="offset" />
          </mxGeometry>
        </mxCell>
        <mxCell id="xVgXiPHcwSo_9_qTZW_U-33" value="13" style="rounded=0;whiteSpace=wrap;html=1;" vertex="1" parent="1">
          <mxGeometry x="580" y="270" width="30" height="30" as="geometry" />
        </mxCell>
        <mxCell id="xVgXiPHcwSo_9_qTZW_U-34" style="edgeStyle=orthogonalEdgeStyle;rounded=0;orthogonalLoop=1;jettySize=auto;html=1;entryX=0;entryY=0.5;entryDx=0;entryDy=0;" edge="1" parent="1" source="xVgXiPHcwSo_9_qTZW_U-36" target="xVgXiPHcwSo_9_qTZW_U-43">
          <mxGeometry relative="1" as="geometry" />
        </mxCell>
        <mxCell id="xVgXiPHcwSo_9_qTZW_U-35" value="1" style="edgeLabel;html=1;align=center;verticalAlign=middle;resizable=0;points=[];" vertex="1" connectable="0" parent="xVgXiPHcwSo_9_qTZW_U-34">
          <mxGeometry x="0.232" y="2" relative="1" as="geometry">
            <mxPoint as="offset" />
          </mxGeometry>
        </mxCell>
        <mxCell id="xVgXiPHcwSo_9_qTZW_U-36" value="16" style="rounded=0;whiteSpace=wrap;html=1;" vertex="1" parent="1">
          <mxGeometry x="640" y="270" width="30" height="30" as="geometry" />
        </mxCell>
        <mxCell id="xVgXiPHcwSo_9_qTZW_U-37" style="edgeStyle=orthogonalEdgeStyle;rounded=0;orthogonalLoop=1;jettySize=auto;html=1;entryX=0.5;entryY=0;entryDx=0;entryDy=0;curved=1;exitX=0.5;exitY=0;exitDx=0;exitDy=0;" edge="1" parent="1" source="xVgXiPHcwSo_9_qTZW_U-19" target="xVgXiPHcwSo_9_qTZW_U-36">
          <mxGeometry relative="1" as="geometry">
            <mxPoint x="390" y="230" as="sourcePoint" />
            <mxPoint x="640" y="230" as="targetPoint" />
            <Array as="points">
              <mxPoint x="355" y="200" />
              <mxPoint x="655" y="200" />
            </Array>
          </mxGeometry>
        </mxCell>
        <mxCell id="xVgXiPHcwSo_9_qTZW_U-38" value="5" style="edgeLabel;html=1;align=center;verticalAlign=middle;resizable=0;points=[];" vertex="1" connectable="0" parent="xVgXiPHcwSo_9_qTZW_U-37">
          <mxGeometry x="0.0355" relative="1" as="geometry">
            <mxPoint as="offset" />
          </mxGeometry>
        </mxCell>
        <mxCell id="xVgXiPHcwSo_9_qTZW_U-39" style="edgeStyle=orthogonalEdgeStyle;rounded=0;orthogonalLoop=1;jettySize=auto;html=1;entryX=0.5;entryY=0;entryDx=0;entryDy=0;curved=1;exitX=0.5;exitY=0;exitDx=0;exitDy=0;" edge="1" parent="1" source="xVgXiPHcwSo_9_qTZW_U-5" target="xVgXiPHcwSo_9_qTZW_U-11">
          <mxGeometry relative="1" as="geometry">
            <mxPoint x="115" y="280" as="sourcePoint" />
            <mxPoint x="365" y="280" as="targetPoint" />
            <Array as="points">
              <mxPoint x="105" y="240" />
              <mxPoint x="239" y="240" />
            </Array>
          </mxGeometry>
        </mxCell>
        <mxCell id="xVgXiPHcwSo_9_qTZW_U-40" value="2" style="edgeLabel;html=1;align=center;verticalAlign=middle;resizable=0;points=[];" vertex="1" connectable="0" parent="xVgXiPHcwSo_9_qTZW_U-39">
          <mxGeometry x="0.0804" y="2" relative="1" as="geometry">
            <mxPoint as="offset" />
          </mxGeometry>
        </mxCell>
        <mxCell id="xVgXiPHcwSo_9_qTZW_U-41" style="edgeStyle=orthogonalEdgeStyle;rounded=0;orthogonalLoop=1;jettySize=auto;html=1;entryX=0.5;entryY=0;entryDx=0;entryDy=0;curved=1;exitX=0.5;exitY=0;exitDx=0;exitDy=0;" edge="1" parent="1" source="xVgXiPHcwSo_9_qTZW_U-11" target="xVgXiPHcwSo_9_qTZW_U-19">
          <mxGeometry relative="1" as="geometry">
            <mxPoint x="240" y="270" as="sourcePoint" />
            <mxPoint x="374" y="270" as="targetPoint" />
            <Array as="points">
              <mxPoint x="240" y="270" />
              <mxPoint x="240" y="240" />
              <mxPoint x="355" y="240" />
            </Array>
          </mxGeometry>
        </mxCell>
        <mxCell id="xVgXiPHcwSo_9_qTZW_U-42" value="2" style="edgeLabel;html=1;align=center;verticalAlign=middle;resizable=0;points=[];" vertex="1" connectable="0" parent="xVgXiPHcwSo_9_qTZW_U-41">
          <mxGeometry x="-0.025" y="2" relative="1" as="geometry">
            <mxPoint as="offset" />
          </mxGeometry>
        </mxCell>
        <mxCell id="xVgXiPHcwSo_9_qTZW_U-43" value="19" style="rounded=0;whiteSpace=wrap;html=1;" vertex="1" parent="1">
          <mxGeometry x="700" y="270" width="30" height="30" as="geometry" />
        </mxCell>
      </root>
    </mxGraphModel>
  </diagram>
</mxfile>
